<mxfile host="65bd71144e">
    <diagram id="ytwjphS38zm7c073dALb" name="Page-1">
        <mxGraphModel dx="1693" dy="1381" grid="1" gridSize="10" guides="1" tooltips="1" connect="1" arrows="1" fold="1" page="1" pageScale="1" pageWidth="827" pageHeight="1169" math="0" shadow="0">
            <root>
                <mxCell id="0"/>
                <mxCell id="1" parent="0"/>
                <mxCell id="2" value="Index.html" style="text;html=1;align=center;verticalAlign=middle;resizable=0;points=[];autosize=1;strokeColor=none;fillColor=none;" vertex="1" parent="1">
                    <mxGeometry x="370" width="80" height="30" as="geometry"/>
                </mxCell>
                <mxCell id="5" value="" style="rounded=0;whiteSpace=wrap;html=1;" vertex="1" parent="1">
                    <mxGeometry x="110" y="80" width="570" height="920" as="geometry"/>
                </mxCell>
                <mxCell id="8" value="Find your movie" style="rounded=0;whiteSpace=wrap;html=1;" vertex="1" parent="1">
                    <mxGeometry x="150" y="160" width="290" height="60" as="geometry"/>
                </mxCell>
                <mxCell id="9" value="Watchlist" style="rounded=0;whiteSpace=wrap;html=1;" vertex="1" parent="1">
                    <mxGeometry x="540" y="170" width="120" height="40" as="geometry"/>
                </mxCell>
                <mxCell id="11" value="" style="shape=link;html=1;startArrow=none;" edge="1" parent="1" source="12">
                    <mxGeometry width="100" relative="1" as="geometry">
                        <mxPoint x="110" y="270" as="sourcePoint"/>
                        <mxPoint x="680" y="275" as="targetPoint"/>
                    </mxGeometry>
                </mxCell>
                <mxCell id="13" value="" style="shape=link;html=1;entryX=1.005;entryY=0.205;entryDx=0;entryDy=0;entryPerimeter=0;endArrow=none;exitX=-0.001;exitY=0.209;exitDx=0;exitDy=0;exitPerimeter=0;" edge="1" parent="1" source="5" target="12">
                    <mxGeometry width="100" relative="1" as="geometry">
                        <mxPoint x="100" y="275" as="sourcePoint"/>
                        <mxPoint x="682.8499999999999" y="268.5999999999999" as="targetPoint"/>
                        <Array as="points">
                            <mxPoint x="310" y="275"/>
                        </Array>
                    </mxGeometry>
                </mxCell>
                <mxCell id="12" value="Searchbar" style="rounded=0;whiteSpace=wrap;html=1;" vertex="1" parent="1">
                    <mxGeometry x="294" y="260" width="236" height="30" as="geometry"/>
                </mxCell>
                <mxCell id="14" value="" style="rounded=0;whiteSpace=wrap;html=1;" vertex="1" parent="1">
                    <mxGeometry x="140" y="320" width="120" height="170" as="geometry"/>
                </mxCell>
                <mxCell id="16" value="" style="rounded=0;whiteSpace=wrap;html=1;" vertex="1" parent="1">
                    <mxGeometry x="140" y="520" width="120" height="170" as="geometry"/>
                </mxCell>
                <mxCell id="17" value="" style="rounded=0;whiteSpace=wrap;html=1;" vertex="1" parent="1">
                    <mxGeometry x="140" y="720" width="120" height="170" as="geometry"/>
                </mxCell>
                <mxCell id="18" value="Title" style="rounded=0;whiteSpace=wrap;html=1;" vertex="1" parent="1">
                    <mxGeometry x="294" y="320" width="206" height="30" as="geometry"/>
                </mxCell>
                <mxCell id="19" value="Title" style="rounded=0;whiteSpace=wrap;html=1;" vertex="1" parent="1">
                    <mxGeometry x="294" y="720" width="206" height="30" as="geometry"/>
                </mxCell>
                <mxCell id="20" value="Title" style="rounded=0;whiteSpace=wrap;html=1;" vertex="1" parent="1">
                    <mxGeometry x="292" y="520" width="206" height="30" as="geometry"/>
                </mxCell>
                <mxCell id="21" value="Description" style="rounded=0;whiteSpace=wrap;html=1;" vertex="1" parent="1">
                    <mxGeometry x="294" y="370" width="366" height="120" as="geometry"/>
                </mxCell>
                <mxCell id="22" value="Description" style="rounded=0;whiteSpace=wrap;html=1;" vertex="1" parent="1">
                    <mxGeometry x="292" y="770" width="366" height="120" as="geometry"/>
                </mxCell>
                <mxCell id="23" value="Description" style="rounded=0;whiteSpace=wrap;html=1;" vertex="1" parent="1">
                    <mxGeometry x="292" y="570" width="366" height="120" as="geometry"/>
                </mxCell>
                <mxCell id="26" value="" style="endArrow=none;html=1;exitX=-0.006;exitY=0.51;exitDx=0;exitDy=0;exitPerimeter=0;" edge="1" parent="1">
                    <mxGeometry width="50" height="50" relative="1" as="geometry">
                        <mxPoint x="106.57999999999993" y="710" as="sourcePoint"/>
                        <mxPoint x="680" y="710.8" as="targetPoint"/>
                        <Array as="points"/>
                    </mxGeometry>
                </mxCell>
                <mxCell id="28" value="" style="endArrow=none;html=1;exitX=-0.006;exitY=0.51;exitDx=0;exitDy=0;exitPerimeter=0;" edge="1" parent="1">
                    <mxGeometry width="50" height="50" relative="1" as="geometry">
                        <mxPoint x="109.99999999999993" y="510.00000000000006" as="sourcePoint"/>
                        <mxPoint x="683.42" y="510.8" as="targetPoint"/>
                        <Array as="points"/>
                    </mxGeometry>
                </mxCell>
                <mxCell id="31" value="" style="rounded=0;whiteSpace=wrap;html=1;" vertex="1" parent="1">
                    <mxGeometry x="129" y="1169" width="570" height="920" as="geometry"/>
                </mxCell>
                <mxCell id="32" value="Watchlist.html" style="text;html=1;align=center;verticalAlign=middle;resizable=0;points=[];autosize=1;strokeColor=none;fillColor=none;" vertex="1" parent="1">
                    <mxGeometry x="347" y="1120" width="100" height="30" as="geometry"/>
                </mxCell>
                <mxCell id="33" value="Watchlist" style="rounded=0;whiteSpace=wrap;html=1;" vertex="1" parent="1">
                    <mxGeometry x="152" y="1250" width="290" height="60" as="geometry"/>
                </mxCell>
                <mxCell id="34" value="Search" style="rounded=0;whiteSpace=wrap;html=1;" vertex="1" parent="1">
                    <mxGeometry x="542" y="1260" width="120" height="40" as="geometry"/>
                </mxCell>
                <mxCell id="38" value="" style="rounded=0;whiteSpace=wrap;html=1;" vertex="1" parent="1">
                    <mxGeometry x="142" y="1410" width="120" height="170" as="geometry"/>
                </mxCell>
                <mxCell id="39" value="" style="rounded=0;whiteSpace=wrap;html=1;" vertex="1" parent="1">
                    <mxGeometry x="142" y="1610" width="120" height="170" as="geometry"/>
                </mxCell>
                <mxCell id="40" value="" style="rounded=0;whiteSpace=wrap;html=1;" vertex="1" parent="1">
                    <mxGeometry x="142" y="1810" width="120" height="170" as="geometry"/>
                </mxCell>
                <mxCell id="41" value="Title" style="rounded=0;whiteSpace=wrap;html=1;" vertex="1" parent="1">
                    <mxGeometry x="296" y="1410" width="206" height="30" as="geometry"/>
                </mxCell>
                <mxCell id="42" value="Title" style="rounded=0;whiteSpace=wrap;html=1;" vertex="1" parent="1">
                    <mxGeometry x="296" y="1810" width="206" height="30" as="geometry"/>
                </mxCell>
                <mxCell id="43" value="Title" style="rounded=0;whiteSpace=wrap;html=1;" vertex="1" parent="1">
                    <mxGeometry x="294" y="1610" width="206" height="30" as="geometry"/>
                </mxCell>
                <mxCell id="44" value="Description" style="rounded=0;whiteSpace=wrap;html=1;" vertex="1" parent="1">
                    <mxGeometry x="296" y="1460" width="366" height="120" as="geometry"/>
                </mxCell>
                <mxCell id="45" value="Description" style="rounded=0;whiteSpace=wrap;html=1;" vertex="1" parent="1">
                    <mxGeometry x="294" y="1860" width="366" height="120" as="geometry"/>
                </mxCell>
                <mxCell id="46" value="Description" style="rounded=0;whiteSpace=wrap;html=1;" vertex="1" parent="1">
                    <mxGeometry x="294" y="1660" width="366" height="120" as="geometry"/>
                </mxCell>
                <mxCell id="47" value="" style="endArrow=none;html=1;exitX=-0.006;exitY=0.51;exitDx=0;exitDy=0;exitPerimeter=0;" edge="1" parent="1">
                    <mxGeometry width="50" height="50" relative="1" as="geometry">
                        <mxPoint x="108.57999999999993" y="1800" as="sourcePoint"/>
                        <mxPoint x="682" y="1800.8" as="targetPoint"/>
                        <Array as="points"/>
                    </mxGeometry>
                </mxCell>
                <mxCell id="49" value="" style="endArrow=none;html=1;exitX=-0.006;exitY=0.51;exitDx=0;exitDy=0;exitPerimeter=0;" edge="1" parent="1">
                    <mxGeometry width="50" height="50" relative="1" as="geometry">
                        <mxPoint x="112" y="1600" as="sourcePoint"/>
                        <mxPoint x="685.4200000000001" y="1600.8" as="targetPoint"/>
                        <Array as="points"/>
                    </mxGeometry>
                </mxCell>
                <mxCell id="51" value="" style="endArrow=none;html=1;exitX=0.003;exitY=0.202;exitDx=0;exitDy=0;exitPerimeter=0;entryX=1.003;entryY=0.2;entryDx=0;entryDy=0;entryPerimeter=0;" edge="1" parent="1" source="31" target="31">
                    <mxGeometry width="50" height="50" relative="1" as="geometry">
                        <mxPoint x="480" y="1380" as="sourcePoint"/>
                        <mxPoint x="530" y="1320" as="targetPoint"/>
                    </mxGeometry>
                </mxCell>
                <mxCell id="53" value="" style="shape=cross;whiteSpace=wrap;html=1;size=0;" vertex="1" parent="1">
                    <mxGeometry x="530" y="320" width="30" height="30" as="geometry"/>
                </mxCell>
                <mxCell id="54" value="" style="shape=cross;whiteSpace=wrap;html=1;" vertex="1" parent="1">
                    <mxGeometry x="520" y="520" width="30" height="30" as="geometry"/>
                </mxCell>
                <mxCell id="56" value="" style="shape=cross;whiteSpace=wrap;html=1;size=0;" vertex="1" parent="1">
                    <mxGeometry x="530" y="720" width="30" height="30" as="geometry"/>
                </mxCell>
                <mxCell id="57" value="" style="verticalLabelPosition=bottom;verticalAlign=top;html=1;shape=mxgraph.basic.x" vertex="1" parent="1">
                    <mxGeometry x="520" y="1810" width="40" height="30" as="geometry"/>
                </mxCell>
                <mxCell id="58" value="" style="verticalLabelPosition=bottom;verticalAlign=top;html=1;shape=mxgraph.basic.x" vertex="1" parent="1">
                    <mxGeometry x="525" y="1614" width="40" height="30" as="geometry"/>
                </mxCell>
                <mxCell id="59" value="" style="verticalLabelPosition=bottom;verticalAlign=top;html=1;shape=mxgraph.basic.x" vertex="1" parent="1">
                    <mxGeometry x="525" y="1410" width="40" height="30" as="geometry"/>
                </mxCell>
            </root>
        </mxGraphModel>
    </diagram>
</mxfile>